<svg id="Camada_1" data-name="Camada 1" xmlns="http://www.w3.org/2000/svg" fill="white" viewBox="0 0 4608 3456"><path d="M2306.17,1995.84c-296-.4-551.68-236.54-549.94-555.12s258.43-550,552.42-549.21c293.25.8,549.65,232.16,549.78,551.82C2858.56,1771.81,2592.71,1997.82,2306.17,1995.84Zm227.31-980.47-5.82,5.51c5.58,8.85,11.65,17.44,16.55,26.66,2.51,4.74,5.69,12,3.82,15.72-9.92,19.68-56.2,22.32-70.53,5.57-19.39-22.67-37.64-47-60.16-66.16-66-56.17-140.61-58.82-210.42-7.15-75.73,56-113.93,137.25-140.28,224.52-5.46,18.06-.95,39-2,58.57-.73,13.93,2,32.22-5.58,40.83-23.12,26.3-24.55,56.69-23,87.7,1.26,25.77-11.77,42.57-27.6,59.56-10.48,11.25-20.8,12.84-29.22,0-6.13-9.31-11.47-20.86-12.2-31.74-3-44.54,10.68-89.6-10.49-134.07-5.26-11,8.5-32.33,15.8-47.83,4.81-10.22,17.15-17.5,20.22-27.85,22.12-74.65,51.77-145.67,96.19-210.58-49.6,24.15-93.74,54.31-135.1,101.44,19.65-3.2,31.27-5,42.84-7,18.07-3.14,20.7,4.21,15.34,20.06-10.25,30.37-21.86,57.79-60,61.64-11.28,1.14-22.32,8.26-32.72,14-48.87,27-64.38,67.11-49.54,120.89,15.55,56.36,49.6,100.84,89.44,141.06,102.6,103.56,227.93,169,365.23,213,15.78,5,34.17,1.32,51.14,3.39a303.68,303.68,0,0,1,47.76,9.75c17.87,5.19,34.86,16.71,52.74,17.89,41.69,2.75,84.42,5.82,125.32-.45,36.87-5.65,73.59-20.11,107.17-37,30.8-15.53,46.6-47.42,41.26-81.67-5.42-34.75-5.07-74.65-49.81-91.41-12.84-4.82-25.64-23.73-28.61-38.2-7.16-34.93-8.75-71-11.93-106.72-.46-5.16,2.71-10.65,4.2-16,4.92,2.72,10.67,4.57,14.64,8.31,23.21,21.83,43.93,45.18,75.91,57.51,13.48,5.2,20.13,29.76,28.28,46.32,3,6,1.25,14.32,1.66,21.58,10.31-93.42-6.74-180.91-54.77-264-19.22,33.91-36,64.22-53.52,94.1-7.44,12.67-18.35,14.69-22.31-1.21-7.9-31.7-21.8-63.31-.65-96.58,10-15.72,14.7-35.27,19.56-53.68,4.81-18.2-3.68-28.27-23-24.83-22.33,4-45.19,7.15-66.42,14.66-100.28,35.44-189.45,91-272.55,156.48-14,11-21.88,29.48-34.61,42.52a269,269,0,0,1-42.5,35.12c-14.25,9.57-33.18,13.36-45.17,24.82-38.07,36.39-74,75.06-110.48,113.07-20.17,21-23.19,19.91-52-3.66-17.76-14.53-16.34-24.68-1-39.86,39.11-38.77,77.58-78.24,114.81-118.81a150.78,150.78,0,0,0,29.52-47.27c8.71-23,23.34-38.09,46.54-38.28,22.59-.18,38-10.43,54.1-23.2s32.63-24.33,49.26-36.06c87.15-61.45,180-111.72,288.67-144.14Zm127.65,764.34c-9.4-4.86-11.51-7-13.11-6.63-66.42,13.6-133.09,12.46-200.09,5.05-9.7-1.07-20.75,3-30.09,7.1-32.83,14.51-51.28,10-76.32-16.46-9.27-9.79-22.07-17.26-34.59-22.79-72.07-31.83-146.84-58.39-216.32-95-98.42-51.92-182.14-123.34-245.41-216.62-4.84-7.13-10.34-13.81-18.61-24.78-7.86,99.45,13.94,186,58.71,270.49,15.19-27.89,27.56-53.62,42.9-77.44,7.29-11.32,9.25-37,35.18-20.61,34,21.45,36.69,27.92,20.62,57.44-10.87,20-22.28,39.76-31.22,60.59-22.67,52.81-17,60,38.66,57.64,8.16-.34,20.51,6.51,24.26,13.57,7.25,13.67,16.44,41.31,13.18,43.22-31.33,18.35-1.49,22.38,6.3,28.08,16.49,12.07,34.64,21.86,52.1,32.58-.58-10.78-4.62-16.64-8.69-22.48-38.77-55.68-66.14-116.74-80.83-182.79-2.79-12.54,6.85-27.86,10.75-41.89,10.43,3,24,2.94,30.62,9.69,12.67,13,25.06,28.45,31.09,45.22,26.23,73,59.19,141.63,117.87,194.51,48.49,43.7,104.09,64,168.73,42.84,47.26-15.48,84.68-47.46,110.31-88.23,20.49-32.58,45.75-36.24,78.22-33.75,17,1.31,22.28,5.6,12.4,21.15-11.28,17.75-22.26,35.7-33.38,53.56l5.22,5.73Z"/><path d="M1305.53,2576.8c-22.48,4.26-39.56-6.68-46.28-30.71-9.13-32.6-29.82-40.62-61.64-38.44-40.46,2.77-81.34,2.19-121.89.12-25.4-1.3-39,7.64-49,30.9-16.71,39.06-21.59,40.5-65.49,38.12-29.19-1.59-32.26-5.57-20.22-31.65,18.54-40.14,38.05-79.84,57.41-119.59,39.25-80.56,78.32-161.22,118.43-241.35,5.92-11.82,17.1-21,25.84-31.39,7.57,10.07,17,19.24,22.42,30.35,57.32,116.93,114,234.2,170.9,351.31C1355.6,2574.67,1354,2577.34,1305.53,2576.8ZM1141.26,2439c16.73,0,33.47-.05,50.2,0,11.73,0,14.78-4.66,9.64-15.53q-26-55.06-51.4-110.39c-6.36-13.81-11.91-8-16.27.79-10.58,21.39-20.41,43.16-30.75,64.67C1073.54,2439.16,1073.5,2439.14,1141.26,2439Z"/><path d="M2324.65,2368.77c0,57.55.24,115.1-.11,172.64-.2,33.91-9.75,42.76-40.75,31.61-21.85-7.86-39.54-6.44-61.26.73-82.14,27.15-164.34-46.23-157.45-138.54,6.35-85.16,74-137.67,156.29-117.25,27.61,6.85,30.38-2,29.61-24.18-1.2-34.73-.43-69.54-2.1-104.23-1-21.07-2.1-38,27.48-37.52,35.48.53,47.47,7.26,47.95,36.91.84,52.74.31,105.5.35,158.25Q2324.68,2358,2324.65,2368.77Zm-73.83,77.65,5.74-2c-6.46-17.7-8-41.53-20.52-51.67-19.52-15.78-47.6-15.49-70.57-2.06-21.06,12.3-30.7,33.55-26.38,57.93,5,28.16,17.53,51.87,48.22,60.07,38.93,10.41,63.25-8,63.51-48C2250.85,2455.94,2250.82,2451.18,2250.82,2446.42Z"/><path d="M3422.21,2372.74c0-61.13.48-122.26-.31-183.38-.22-17-6.24-35.13,20.1-36.57,31.57-1.73,55.37,2.73,55.46,29.11,0,9.59.78,19.17.82,28.76.12,28.79-.19,57.58.13,86.37.35,31.6.92,32.46,30.47,20.8,63.09-24.88,150.32,11.26,150.8,101.83.22,42,.71,83.94,2.18,125.88.62,17.69-.81,30.22-23.24,31.24-29.68,1.35-48.1-6.45-51.41-26-1.38-8.2-.88-16.75-.91-25.14-.13-31.18.83-62.41-.4-93.55-1.53-38.82-18.08-55.42-51.47-54.47-37.47,1.06-55.7,19.84-56,58.35-.28,32.38.15,64.77-.16,97.16-.38,41.07-3,43.81-37.86,43.54-33.24-.26-35.53-2.5-35.8-42-.37-54-.09-107.95-.09-161.93Z"/><path d="M2658.39,2392.35c0-45.56-1.12-91.16.44-136.66.78-22.63-7.56-29.67-29-28.49-23.87,1.32-47.9-.55-71.79.45-22.26.94-30.09-9.41-28.83-30.37,1.19-19.75-5.07-43.69,26.65-44.47,25.13-.62,50.27-.36,75.41-.38,64.64,0,129.28-.22,193.92.09,36.86.18,38,1.77,37.92,38.91-.09,35.48-.09,35.58-36,36-19.15.22-38.31-.14-57.46.1-34.82.43-35.11.54-35.19,37.13-.18,89.92,0,179.84-.1,269.76-.06,39.83-1.78,41.93-30.94,42.26-35,.39-44.63-8.65-44.94-44.07C2658.1,2485.86,2658.4,2439.1,2658.39,2392.35Z"/><path d="M1860.29,2480.44c1.09,19.12,3.42,38.28,2.82,57.34-.37,12.08-2.86,32.94-8.3,34.31-15,3.78-37.7,5.46-47-3.19-14.72-13.64-22.9-5.57-36.26-2.83-27.42,5.62-56.08,10.94-83.61,8.72-32.27-2.6-54-23.33-59.91-57.39-5.81-33.34,6.71-66.94,38.34-81.66,31-14.41,65.19-21.71,97.79-32.69,7.07-2.39,13.33-7.19,20-10.89-7.17-4.88-14.92-14.59-21.4-13.8-25.81,3.15-52.29,6.65-76.48,15.57-26.6,9.8-30.44-7-37.58-23.79-7.69-18.09-8.3-34.12,14.71-38.8,38.2-7.76,77-19.69,115.2-18.63,48.24,1.35,74.83,32.67,79.34,81.67,2.61,28.47.47,57.37.47,86.08ZM1731,2522.67c17.06-6.9,33.93-10.51,46.29-20,6.9-5.29,6.3-20.37,9.07-31.05-8.14-1.34-16.77-5-24.32-3.5-13.67,2.82-27.81,7-39.6,14.1-7.58,4.6-11.31,15.58-16.77,23.69Z"/><path d="M2985.34,2515.14c22.52-5.13,39.55-6.75,54.66-13,18.48-7.67,32-6.43,42.7,11.3,11,18.19-4.57,26.67-14.25,35.58-36.8,33.87-102.5,39.31-151.68,13.75a133,133,0,0,1-70.88-130.66c5.12-55,42.19-101,93.27-115.69,77.21-22.18,150.7,21.57,162.38,96.67,6.16,39.61-7.3,56.86-46.81,57.77-35.86.82-71.76.07-107.64.44-5.47.06-10.92,2.44-16.37,3.75,2.68,6.14,3.69,15.2,8.35,17.89C2954.92,2502.06,2972.06,2509,2985.34,2515.14ZM2973,2411.62c3.57,0,7.21.46,10.69-.08,12-1.87,24-4.09,36-6.18-12.73-8.89-25-18.57-38.43-26.22-4.2-2.39-12.53-1.09-17.16,1.61-11.76,6.86-22.5,15.47-33.64,23.38,11.79,2.5,23.57,5.07,35.39,7.42C2968.13,2412,2970.59,2411.62,2973,2411.62Z"/><path d="M3285.34,2580.46c-66.28-5.08-109.19-31.17-132.16-84.71-22.67-52.83-11.95-101.74,27-142.36,39.83-41.57,89.08-53.55,144.42-34.72,6.68,2.28,13.57,5.41,18.88,9.9,10.12,8.57,30.1,15.7,17.79,32.67-10.24,14.13-16.85,41-45.82,27.77-8.43-3.84-18.15-5.85-27.45-6.57-28.39-2.2-51.75,6.88-65.8,33.38a62.82,62.82,0,0,0,8,70.46c17.69,20.64,47.75,28.84,74.87,18.71,14.72-5.5,26.93-13.53,41.49,2.53,25.73,28.38,25.79,39.39-8.53,56.1C3319.17,2572.78,3297.76,2576.63,3285.34,2580.46Z"/><path d="M2007.6,2368.91q0,87.9,0,175.79c0,14.73,1.07,30.24-20.11,30.6-18.77.32-40,4.73-49-18.8-3.69-9.72-4.65-21-4.68-31.52q-.48-165-.12-330.06c.08-37.53,23.2-54.41,58.09-39.92,8.12,3.38,14.82,20.17,15.07,31C2008.33,2246.92,2007.6,2307.92,2007.6,2368.91Z"/><path d="M1397.14,2440.86c0-28.8-.26-57.59.06-86.38.44-39.27,23-55.87,56.37-35.2,20.07,12.44,31.1,5.77,48,.17a127.7,127.7,0,0,1,52.56-5.7c16,1.76,39.72-.08,40.65,25.35.73,19.83-31.06,45.87-51.34,45.4-59.35-1.39-71.92,10.73-72.25,69.88-.18,31.19-.89,62.4-.13,93.57.69,28.64-17.7,28.91-38.31,29-20,.08-36-2.15-35.5-28.11.65-36,.16-72,.16-108Z"/><path d="M2467.87,2447.11c0,31.19-.33,62.38.12,93.56.29,19.34.05,35.89-27,35.78-28.92-.12-42.58-8.12-46.5-33.33-1.28-8.23-.79-16.75-.8-25.14,0-56.38-.4-112.76.17-169.13.31-31.94,3.32-33.86,39.87-33.41,33.16.41,33.71.71,34.06,34.51C2468.13,2382.34,2467.87,2414.72,2467.87,2447.11Z"/><path d="M2472,2193.58c.15,19.34-18.64,38.58-38.67,39.59-21.33,1.07-41.23-18.68-40.66-40.36.55-20.77,18.66-37.89,39.63-37.48S2471.79,2173.74,2472,2193.58Z"/><path d="M2647.51,1451.07c1.95,67.56-9.3,143-29.15,217.3-6.7,25.09-48.23,44.07-68,29.64-4.31-3.15-2.85-16.42-1.6-24.66,10-66,24-131.52,30.15-197.82,8.65-92.65-5.05-183.61-34.39-272.13-3.06-9.23-5.52-26.8-2-28.68,15.34-8.16,32.81-12.93,50-16.29,2.74-.54,9.38,11.9,12.07,19.15C2636.22,1262.7,2648.37,1351.05,2647.51,1451.07Z"/><path d="M2567.7,1430.85c-3.67,6.39-7.7,19.64-16.49,27.7q-103,94.44-207.76,186.93c-19.42,17.14-67.8,13.52-84.2-5.2-2.42-2.77,1.4-15.33,5.9-19.11,19.17-16.12,41.09-29.11,59.45-46,71.11-65.54,141.21-132.19,211.82-198.28,5.75-5.37,12.6-9.57,18.93-14.31,2.29,7.46,5.37,14.78,6.68,22.41C2564.24,1397.91,2565.33,1411.06,2567.7,1430.85Z"/><path d="M2151.39,1105.18c58.77,14.77,117.6,29.35,176.26,44.58,7.65,2,14.42,7.4,21.6,11.23-5.26,5.74-10.19,11.82-15.83,17.15-25.71,24.25-53.39,28.08-88.16,17.44-37.18-11.37-76.85-15.08-115.68-20.36-28.93-3.92-31.25-5.38-16.95-32.53C2120.63,1127.5,2122,1102.28,2151.39,1105.18Z"/><path d="M2409.06,1248.51c6.3-4.52,11.85-8.74,17.61-12.63,42.82-28.87,72.82-30.31,105,8,16.32,19.39,16.58,52.34,24.11,79.16-5.68.62-12.79,3.77-16.81,1.48C2495.93,1300,2453.35,1274.59,2409.06,1248.51Z"/><path d="M2211.8,1731.32c-4,3.62-7,7.32-10.8,9.56q-19.87,11.61-40.25,22.35c-31.42,16.54-32.17,16.76-46.09-14.32-4.28-9.57-8.75-26.62-4.19-31.1,11.76-11.53,26.37-24.47,46.75-14,13.63,7,28.25,12,42.2,18.37C2203.58,1724,2207,1727.65,2211.8,1731.32Z"/></svg>